# xmcd
#
# Track frame offsets:
# 150
# 12083
# 24308
# 39066
# 43647
# 53391
# 79766
# 95795
# 109405
# 123491
# 145804
# 155526
# 159661
# 168217
# 182530
# 196677
# 207725
# 230513
# 247348
# 251895
# 264317
#
# Disc length: 3685 seconds
#
#
# Revision: 0
# Processed by: cddbd v1.5.2PL0 Copyright (c) Steve Scherf et al.
# Submitted via: FreeRIP 2.951 
#
DISCID=180e6315
DTITLE=Pete Seeger - Pete Seeger in Italia
DYEAR=1997
DGENRE=Country
TTITLE0=Darlin Corey
TTITLE1=Which Side Are You on?
TTITLE2=This Land Is Your Land
TTITLE3=Car Car
TTITLE4=I Do Mind Dyin'
TTITLE5=Victor Jara
TTITLE6=Estadio Chile
TTITLE7=Guantanamera
TTITLE8=Tarantella siciliana
TTITLE9=Sweet Roseanne
TTITLE10=If I Had a Hammer
TTITLE11=Kayowajineh (Canoe Song9
TTITLE12=Living in the Country
TTITLE13=Viva la Quince Brigada
TTITLE14=John Henry
TTITLE15=Where Have All the Flowers Gone
TTITLE16=Guantanamera (with the Group)
TTITLE17=Sweet Roseanne
TTITLE18=Car Car (2)
TTITLE19=Estadio Chile (2)
TTITLE20=Where Have All the Flowers Gone (2)
EXTD=
EXTT0=
EXTT1=
EXTT2=
EXTT3=
EXTT4=
EXTT5=
EXTT6=
EXTT7=
EXTT8=
EXTT9=
EXTT10=
EXTT11=
EXTT12=
EXTT13=
EXTT14=
EXTT15=
EXTT16=
EXTT17=
EXTT18=
EXTT19=
EXTT20=
PLAYORDER=
